<svg version="1.1" id="icon" xmlns="http://www.w3.org/2000/svg" xmlns:xlink="http://www.w3.org/1999/xlink" x="0px" y="0px"
	viewBox="0 0 250 250" style="enable-background:new 0 0 250 250;" xml:space="preserve">
	<?xml version="1.0" encoding="utf-8"?>
<!-- Generator: Adobe Illustrator 20.1.0, SVG Export Plug-In . SVG Version: 6.00 Build 0)  -->

	<a xlink:href="https://www.google.co.uk/" target="_top">
	<text x="50%" y="50%" style="text-anchor: middle">google</text>
	<style type="text/css">
	.st0{fill:#3C3C3C;}
	.st1{opacity:0.2;enable-background:new    ;}
	.st2{fill:#F4F6F9;}
</style>
<g id="icon_1_">
	<g>
	<path class="st0" d="M250,125c0,69-56,125-125,125C56,250,0,194,0,125C0,56,56,0,125,0C194,0,250,56,250,125z"/>
	<path class="st1" d="M84.8,130.8l-22.3,0.3l-6.8,1.2l4.3,4.3l-2.3,1.1l31.5,31.5l-0.9,0.9l24.6,24.6l-1,1.2l-5.6,2l48.4,48.4
		c47.3-11.5,84-50,93.1-98.2l-78.1-78.1l-77.9,65.5L84.8,130.8z"/>
	</g>
	<path id="icon" class="st2" d="M203.6,132.4l0.1-1.4c-8.2-0.8-16.4-0.9-24.4-0.3c1.3-4,1.9-8.6,1.9-13.8c-0.1-11-3.8-19.6-9.6-26.7
	c1.1-6.7,0.3-13.4-1.8-20.1c-8.3,0.7-15.8,3.4-22.5,8.1c-12.5-2.5-25-2.7-37.5,0c-7.8-5.2-15.4-7.7-23-8.1
	c-2.2,7.4-2.6,14.7-0.7,21.8c-6.6,6.9-9.1,15.3-9,24.5c0.1,5.3,0.9,10,2.4,14.2c-7.8-0.6-15.9-0.5-24,0.3l0.1,1.3
	c8.3-0.8,16.5-0.9,24.4-0.2c0.3,0.7,0.6,1.4,0.9,2.1c-8.6-0.2-16.4,0.5-23.7,2.3l0.3,1.3c7.4-1.8,15.3-2.5,24.1-2.2
	c5.8,10.3,17.1,16.3,33.5,18.2c-3.8,3-5.9,6.7-6.4,10.7c0,0-1.7,0-8.7,0c-11.7,0-14.8-14.7-26.9-13.2c11.7,5.7,9.4,24.1,28.1,24.1
	c6.3,0,7.6,0,7.9,0v16.8c0.1,2.7-1.1,4.5-3,5.8c6.7,0.7,11.7-2.6,11.7-6.7c0-4.1,0-20.2,0-22.2c0-2,2.1-2.1,2.1-2.1v25.9
	c0.1,2.6-1.2,4.1-2.5,5.5c5.9,0.2,11.5-0.9,11.7-5.9c0,0,0-23.6,0-24.8c0-1.2,2.1-1.3,2.1,0c0,1.3,0,23.7,0,23.7
	c0.1,4.2,3.7,7.6,11.5,7.1c-2.1-1.7-2.7-3.3-2.7-5.7c0-2.4,0-25.6,0-25.6s2.1-0.1,2.1,2.1c0,2.2,0,17.9,0,21.6
	c0,4.8,5.9,6.8,12.5,6.6c-2.2-1.6-3.7-3.6-3.7-6.1v-26c-0.2-3.8-1.8-7.4-4.9-10.8c15-2.3,25.8-8.2,31.1-18.8
	c8.9-0.3,16.8,0.4,24.2,2.2l0.3-1.3c-7.3-1.8-15.2-2.5-23.9-2.3c0.3-0.7,0.6-1.3,0.9-2C186.9,131.5,195.2,131.6,203.6,132.4z
	M78.6,153.5c-0.4,0-0.7-0.2-0.7-0.5c0-0.3,0.3-0.5,0.7-0.5c0.4,0,0.7,0.2,0.7,0.5C79.2,153.3,78.9,153.5,78.6,153.5z M80.7,154.9
	c-0.4,0-0.7-0.2-0.7-0.5c0-0.3,0.3-0.5,0.7-0.5c0.4,0,0.7,0.2,0.7,0.5C81.4,154.6,81.1,154.9,80.7,154.9z M82.8,156.7
	c-0.5,0-0.9-0.3-0.9-0.6c0-0.3,0.4-0.6,0.9-0.6c0.5,0,0.9,0.3,0.9,0.6C83.7,156.4,83.3,156.7,82.8,156.7z M84.9,158.9
	c-0.6,0-1-0.3-1-0.7c0-0.4,0.5-0.7,1-0.7c0.6,0,1,0.3,1,0.7C85.9,158.6,85.4,158.9,84.9,158.9z M87.1,161.4c-0.6,0-1.1-0.4-1.1-0.8
	c0-0.4,0.5-0.8,1.1-0.8c0.6,0,1.1,0.4,1.1,0.8C88.3,161.1,87.8,161.4,87.1,161.4z M89.8,163.9c-0.7,0-1.2-0.4-1.3-0.9
	c0-0.5,0.6-0.9,1.3-0.9c0.7,0,1.3,0.4,1.3,0.9C91,163.5,90.5,163.9,89.8,163.9z M93.3,166.3c-0.8,0-1.4-0.4-1.4-1
	c0-0.5,0.6-1,1.4-1c0.8,0,1.4,0.4,1.4,1S94.1,166.3,93.3,166.3z M97.8,167.6c-0.8,0-1.4-0.4-1.4-1c0-0.5,0.6-1,1.4-1
	c0.8,0,1.4,0.4,1.4,1C99.2,167.2,98.5,167.6,97.8,167.6z M102.4,167.8c-0.8,0-1.4-0.4-1.4-1c0-0.5,0.6-1,1.4-1c0.8,0,1.4,0.4,1.4,1
	C103.8,167.3,103.2,167.8,102.4,167.8z M107,167.9c-0.8,0-1.4-0.4-1.4-1c0-0.5,0.6-1,1.4-1c0.8,0,1.4,0.4,1.4,1
	C108.4,167.4,107.8,167.9,107,167.9z"/>
</g>
</svg>