<?xml version="1.0" encoding="utf-8"?>    
<svg version="1.1" id="icon" xmlns="http://www.w3.org/2000/svg" xmlns:xlink="http://www.w3.org/1999/xlink" x="0px" y="0px"
viewBox="0 0 250 250" style="enable-background:new 0 0 250 250;" xml:space="preserve">

<!-- Generator: Adobe Illustrator 20.1.0, SVG Export Plug-In . SVG Version: 6.00 Build 0)  -->
<a xlink:href="" target="_top">
<text x="50%" y="50%" style="text-anchor: middle">google</text>
<style type="text/css">
.GPst0{fill:#55595c;stroke:#55595c;stroke-width:0.5;stroke-miterlimit:10;}
.GPst1{fill:#FFFFFF;stroke:#55595c;stroke-width:0.5;stroke-miterlimit:10;}
</style>
<g id="icon_2_">
<g>
	<path class="GPst0" d="M125.3-0.3c-69,0-125,56-125,125c0,69,56,125,125,125s125-56,125-125C250.3,55.6,194.3-0.3,125.3-0.3z"/>
</g>
<g>
	<path id="icon" class="GPst1" d="M142.6,55.8c0,0-31.6,0-42.5,0c-19.4,0-37.7,13.6-37.7,30.7c0,17.4,13.2,31,33,31c1.4,0,2.7-0.3,4-0.4
	c-1.3,2.4-2.2,5.1-2.2,7.9c0,4.8,2.6,8.7,5.9,11.9c-2.5,0-4.9,0-7.5,0c-24.1,0-42.6,15.3-42.6,31.2c0,15.6,20.3,25.5,44.4,25.5
	c27.4,0,42.6-15.6,42.6-31.2c0-12.5-3.7-20.1-15.1-28.2c-3.9-2.8-11.4-9.5-11.4-13.5c0-4.6,1.3-6.9,8.3-12.4
	c7.2-5.6,12.2-12.3,12.2-21.4c0-10.9-4.7-24.2-13.8-24.2h15.5L142.6,55.8z M128.3,159.6c0.3,1.5,0.5,3,0.5,4.5
	c0,12.6-8.2,22.5-31.5,22.5c-16.6,0-28.6-10.5-28.6-23.2c0-12.4,14.9-22.7,31.5-22.5c3.9,0,7.5,0.7,10.8,1.7
	C120,148.9,126.5,152.5,128.3,159.6z M101.7,112.5C90.5,112.1,79.9,100,78,85.3C76,70.6,83.5,59.4,94.7,59.8
	c11.2,0.3,21.8,12.1,23.7,26.8C120.3,101.2,112.8,112.8,101.7,112.5z"/>
	<polygon class="st1" points="177,110.9 177,90.2 163.2,90.2 163.2,110.9 142.6,110.9 142.6,124.6 163.2,124.6 163.2,145.3 
	177,145.3 177,124.6 197.7,124.6 197.7,110.9 		"/>
</g>
</g>
</svg>
