<svg version="1.1" id="Layer_1" xmlns="http://www.w3.org/2000/svg" xmlns:xlink="http://www.w3.org/1999/xlink" x="0px" y="0px"
	 viewBox="0 0 617.8 135" style="enable-background:new 0 0 617.8 135;" xml:space="preserve">
<style type="text/css">
	.st0{fill:#373a3c;stroke:#E56A57;stroke-width:5;stroke-miterlimit:10;
	animation: lineColor 5s infinite;}
	.st1{fill:#06B2E5;stroke:#818A91;}
	.st2{font-family:'Raleway-Regular';}
	.st3{font-size:72px;}
	@keyframes lineColor {
    0%{stroke:#E56A57}
    50%{stroke:#06b2e5}
	1000%{stroke:#E56A57}
</style>
<path class="st0" d="M175.6,56.9c-1-1.9-5.2-2.6-10.4-4.6c-5.2-2-11.4-5.5-17-7.5c-5.7-2.1-10.9-2.8-17.9-2.6c-1.5,0-3,0.1-4.6,0.2
	c0-0.1,0.1-0.2,0.1-0.3c1.8-4.8,0.1-11-1.8-15.5c-1.9-4.5-4-7.2-6.7-9.7c-2.8-2.5-6.2-4.8-7.6-5.4c-1.5-0.5-0.9,0.7-1.7,1
	c-0.7,0.3-2.7-0.3-4.9-1.5c-2.2-1.3-4.7-3.2-7.7-4.7c-3.1-1.5-6.8-2.6-10.1-3.2c-3.3-0.6-6.3-0.7-6.7-0.5c-0.4,0.2,1.8,0.6,2.6,1.4
	c0.8,0.7,0.3,1.8-2.5,1.9c-2.8,0.2-8-0.5-12.4-0.8c-4.4-0.3-8-0.3-12.2,0.5c-4.2,0.8-8.9,2.4-9.6,2.9c-0.7,0.5,2.5,0,4.8,0.2
	c2.3,0.2,3.8,1.2,2.7,2.3c-1.1,1-4.8,2-8,3c-3.1,0.9-5.7,1.8-8.7,3.5c-3,1.7-6.4,4.3-7.1,5.3s1.4,0.3,4.3,0.2
	c2.9-0.1,6.8,0.4,8.3,1.2s0.9,2.2-0.6,3c-1.5,0.8-3.9,1.2-4,1.8c-0.1,0.6,2.1,1.3,5.1,2.5c3.1,1.2,7.1,2.9,9.6,4.2
	c2.5,1.3,3.5,2.2,2.6,2.9c-0.8,0.6-3.5,1-3.5,1.7c0,0.7,2.5,1.7,5.4,2.6c2.9,0.9,6.3,1.6,9.3,2.3c3,0.7,5.6,1.3,7.5,3
	c1.9,1.7,3.1,4.3,2.8,6.3c-0.1,0.5-0.2,0.9-0.4,1.4c-0.7,0.3-1.3,0.6-1.8,1.1c-0.4,0.1-0.9,0.2-1.3,0.2c-4.6,0.6-9-0.4-12.6-1.6
	c-3.6-1.3-6.3-2.8-9.1-4.8c-2.7-1.9-5.5-4.3-10.1-5.6c-4.7-1.3-11.2-1.6-16.7-0.4c-5.5,1.2-10,3.9-13.2,6.5c-3.2,2.6-5,5.1-5.4,6.1
	c-0.3,1,0.8,0.4,2.3,0.4c1.4,0,3.1,0.6,3.8,2c0.7,1.5,0.4,3.9-1.6,5.6c-2,1.7-5.7,2.7-6.3,3.3C2,69.2,4.7,69.3,7,71.1
	c2.3,1.7,4.4,5,5.3,7.6c0.9,2.7,0.6,4.8-0.7,5.9c-1.3,1.1-3.5,1.2-2.8,1.9c0.7,0.7,4.3,2,7.1,3.8c2.8,1.9,4.7,4.3,5.6,6.9
	c0.8,2.6,0.5,5.5-0.7,7.2c-1.2,1.7-3.4,2.3-2.9,2.9c0.4,0.6,3.5,1.2,6.3,2.5c2.8,1.2,5.5,3.1,6.8,4.6c1.3,1.5,1.3,2.6,0.6,3.2
	c-0.7,0.6-2.1,0.8-1.4,1.5c0.7,0.6,3.4,1.8,7.8,2.2c4.4,0.4,10.3,0.1,15.7-1.2c5.3-1.3,10-3.6,13.1-6.9c3.1-3.3,4.6-7.7,5.3-12
	c0.7-4.4,0.7-8.7,1.4-13.1c0.6-4.4,1.9-8.9,3.7-11c1.8-2.1,4-1.9,6.7-1.8c0.9,0,1.8,0,2.7-0.1c-2.2,2-3.9,4.1-5,6.4
	c-1.1,2.4-1.5,5-0.7,7.8c0.8,2.8,2.7,5.9,4.4,8.8s3,5.8,3.8,8.4c0.7,2.5,0.8,4.8,0.2,7.1c-0.6,2.4-2,4.9-4.5,6.8
	c-2.5,1.9-6.1,3.3-9.8,4.1c-3.7,0.7-7.4,0.8-5.6,1.7c1.8,0.8,9,2.4,14.4,2.6c5.4,0.2,8.9-0.9,9.6-0.7c0.7,0.2-1.5,1.7-3.5,2.6
	c-2,0.9-3.9,1.3-2.5,1.5c1.3,0.2,5.8,0.3,9.7,0c3.9-0.4,7.2-1.2,10.2-2.4c3-1.2,5.6-2.6,6.3-2.7c0.7,0-0.6,1.3-2,2.5
	c-1.4,1.2-3,2.1-1.6,1.9c1.4-0.1,5.7-1.3,9.2-2.9c3.5-1.5,6.3-3.4,8.5-5.6c2.3-2.2,4-4.7,4.2-4.2c0.1,0.5-1.3,3.9-0.4,4.2
	c0.9,0.3,4.3-2.5,6.8-5.9c2.6-3.5,4.4-7.7,4.6-15c0.2-7.3-1.1-17.6-3.9-23.3c-0.3-0.6-0.6-1.2-1-1.7c3.4,0.3,6.6,0.5,9.4,0.5
	c0.1,0,0.3,0,0.4,0c-1.2,2.4-2.1,4.8-2.3,8c-0.2,3.3,0.3,7.4,1.8,11.2c1.5,3.7,4.1,7.1,5.6,10.7c1.6,3.7,2.2,7.6,2.1,10.6
	c-0.1,2.9-0.9,4.8,0,3.2c0.9-1.6,3.6-6.6,5.1-11.2c1.6-4.7,2.1-9,1.9-12.9c-0.1-3.8-0.9-7.2-2.6-10.4s-4.1-6.4-4.4-8.8
	c0-0.4-0.1-0.7,0-1c3.5-0.7,6.2-1.9,8.4-3.3c3.6-2.4,6.1-5.4,8.4-8.6C174.3,62.1,176.6,58.9,175.6,56.9z"/>
<text transform="matrix(0.8809 0 0 1 187.2911 99.5)" class="st1 st2 st3">RTS[betta] v1.0</text>
</svg>
