
<svg version="1.1" id="logo" xmlns="http://www.w3.org/2000/svg" xmlns:xlink="http://www.w3.org/1999/xlink" x="0px" y="0px"
	 viewBox="0 0 792 612" style="enable-background:new 0 0 792 612;" xml:space="preserve">
	 <g>
		<style type="text/css">
		
			.st0{
				
				fill:#FFFFFF;stroke:red;stroke-width:5;stroke-miterlimit:10;
				stroke-dasharray: 4000;
				stroke-dashoffset: 0;
				-webkit-animation: dash 8s linear forwards;
				animation: dash 8s linear forwards;
				}
				@-webkit-keyframes dash {
					from {
						stroke-dashoffset: 4000;
					}
					to {
						stroke-dashoffset: 0;
					}
				}
					
			
			

		</style>
<path class="st0" d="M770.2,262.1c-4.1-8.1-21.6-10.8-43.1-19.2c-21.6-8.5-47.2-22.7-70.8-31.3c-23.6-8.7-45.1-11.7-74.2-11
	c-6.1,0.2-12.5,0.5-19.1,1c0.2-0.4,0.3-0.8,0.5-1.2c7.4-19.9,0.5-45.7-7.3-64.2c-7.8-18.5-16.4-29.8-27.9-40.2
	c-11.4-10.4-25.7-20-31.7-22.3c-6-2.3-3.9,2.8-7,4.2s-11.3-1.1-20.5-6.3c-9.2-5.2-19.4-13.3-32.2-19.7c-12.8-6.3-28.3-11-42.1-13.5
	c-13.8-2.5-26-2.9-27.7-2.1c-1.6,0.8,7.3,2.7,10.8,5.8c3.5,3.1,1.4,7.3-10.4,8.1c-11.8,0.8-33.3-1.9-51.6-3.3s-33.3-1.3-50.6,1.9
	c-17.3,3.3-36.8,9.8-39.9,11.9c-3.1,2.1,10.4-0.2,20.1,0.8c9.8,1,15.9,5.2,11.2,9.4c-4.7,4.2-20.1,8.5-33.1,12.3
	c-13,3.8-23.6,7.3-36,14.4c-12.4,7.1-26.6,17.9-29.5,21.9s5.7,1.3,17.9,1c12.2-0.4,28.1,1.5,34.6,5.2c6.5,3.7,3.7,9-2.6,12.5
	c-6.3,3.5-16.1,5-16.5,7.3s8.5,5.4,21.4,10.4s29.5,11.9,39.9,17.3s14.4,9.2,11,11.9c-3.5,2.7-14.4,4.2-14.6,7.1
	c-0.2,2.9,10.4,7.1,22.6,10.8c12.2,3.7,26,6.7,38.4,9.6c12.4,2.9,23.4,5.6,31.3,12.5c8,6.9,12.9,18,11.6,26.3c-0.3,2-1,3.9-1.8,5.6
	c-3.1,1.2-5.4,2.6-7.6,4.4c-1.8,0.3-3.6,0.6-5.5,0.9c-19,2.4-37.5-1.6-52.4-6.8c-14.9-5.3-26.3-11.8-37.7-19.9
	c-11.4-8.1-22.8-17.7-42.1-23.1s-46.6-6.5-69.5-1.5c-23,5-41.7,16.2-54.9,26.9c-13.2,10.8-20.9,21.2-22.4,25.2
	c-1.4,4,3.5,1.7,9.4,1.7c5.9,0,12.8,2.3,15.7,8.5c2.8,6.2,1.6,16.2-6.7,23.3c-8.3,7.1-23.8,11.3-26,13.8c-2.2,2.5,8.7,3.3,18.5,10.4
	c9.8,7.1,18.3,20.6,22,31.7c3.7,11.2,2.4,20-2.8,24.6c-5.3,4.6-14.6,5-11.8,7.9c2.8,2.9,17.9,8.3,29.5,16
	c11.6,7.7,19.7,17.7,23.2,28.7c3.5,11,2.2,22.9-2.8,30c-5.1,7.1-14,9.4-12.2,11.9c1.8,2.5,14.4,5.2,26.2,10.4
	c11.8,5.2,22.8,12.9,28.3,19c5.5,6.2,5.5,10.8,2.6,13.5c-2.8,2.7-8.5,3.5-5.7,6.2c2.8,2.7,14.2,7.3,32.3,9
	c18.1,1.7,42.9,0.6,65.1-4.8c22.2-5.4,41.7-15,54.5-28.8s18.9-31.9,22-50c3-18.1,3-36.2,5.7-54.5c2.7-18.4,8.1-37,15.3-45.8
	s16.5-7.7,27.6-7.5c3.7,0.1,7.5,0,11.4-0.3c-9,8.4-16.2,17-20.6,26.6c-4.5,9.8-6.2,20.6-2.9,32.3c3.3,11.7,11.4,24.4,18.3,36.7
	s12.6,24.2,15.7,34.8c3,10.6,3.5,19.8,0.8,29.6c-2.6,9.8-8.3,20.2-18.7,28.3c-10.4,8.1-25.4,13.8-40.7,16.9s-30.7,3.5-23.4,6.9
	c7.3,3.5,37.4,10,59.8,11c22.4,1,37-3.7,39.9-2.9c2.8,0.8-6.1,6.9-14.4,10.8c-8.3,3.8-16.1,5.4-10.6,6.3c5.5,1,24.2,1.3,40.5-0.2
	c16.3-1.5,30.1-5,42.5-9.8c12.4-4.8,23.4-11,26.2-11.2c2.8-0.2-2.4,5.6-8.3,10.4c-5.9,4.8-12.4,8.7-6.7,8.1
	c5.7-0.6,23.6-5.6,38.2-11.9c14.6-6.3,26-14,35.4-23.1c9.4-9,16.7-19.4,17.3-17.5c0.6,1.9-5.5,16.2-1.6,17.5
	c3.9,1.3,17.7-10.2,28.4-24.7c10.7-14.5,18.2-32,19.2-62.2c1-30.2-4.5-73.1-16.2-96.7c-1.3-2.6-2.6-4.9-4-7
	c14.3,1.3,27.5,2.2,39.1,2.2c0.5,0,1,0,1.6,0c-5.2,10.1-8.6,19.8-9.4,33.2c-0.7,13.6,1.3,30.9,7.6,46.4
	c6.3,15.6,16.9,29.4,23.4,44.6c6.5,15.2,8.9,31.7,8.5,43.8c-0.4,12.1-3.7,19.8,0.2,13.3c3.9-6.5,14.8-27.3,21.3-46.7
	c6.5-19.4,8.5-37.5,7.9-53.5c-0.6-16-3.9-29.8-10.6-43.2c-6.7-13.4-16.9-26.4-18.4-36.6c-0.2-1.5-0.2-2.9-0.1-4.2
	c14.5-2.9,25.5-7.8,34.8-13.8c15-9.8,25.2-22.5,35-35.6C764.9,283.6,774.3,270.2,770.2,262.1z"/>
	</g>
	<g>
<style type="text/css">
	.st2{
	fill:#ffffff;
	stroke-width: 0;
    animation: colorChange 5s;
	animation-delay: 8s;
}
	@keyframes colorChange {
    0%{fill:#ffffff}
    50%{fill:#06b2e5}
	100%{fill:#ffffff}
}
</style>
<path class="st2" d="M770.2,262.1c-4.1-8.1-21.6-10.8-43.1-19.2c-21.6-8.5-47.2-22.7-70.8-31.3c-23.6-8.7-45.1-11.7-74.2-11
	c-6.1,0.2-12.5,0.5-19.1,1c0.2-0.4,0.3-0.8,0.5-1.2c7.4-19.9,0.5-45.7-7.3-64.2c-7.8-18.5-16.4-29.8-27.9-40.2
	c-11.4-10.4-25.7-20-31.7-22.3c-6-2.3-3.9,2.8-7,4.2s-11.3-1.1-20.5-6.3c-9.2-5.2-19.4-13.3-32.2-19.7c-12.8-6.3-28.3-11-42.1-13.5
	c-13.8-2.5-26-2.9-27.7-2.1c-1.6,0.8,7.3,2.7,10.8,5.8c3.5,3.1,1.4,7.3-10.4,8.1c-11.8,0.8-33.3-1.9-51.6-3.3s-33.3-1.3-50.6,1.9
	c-17.3,3.3-36.8,9.8-39.9,11.9c-3.1,2.1,10.4-0.2,20.1,0.8c9.8,1,15.9,5.2,11.2,9.4c-4.7,4.2-20.1,8.5-33.1,12.3
	c-13,3.8-23.6,7.3-36,14.4c-12.4,7.1-26.6,17.9-29.5,21.9s5.7,1.3,17.9,1c12.2-0.4,28.1,1.5,34.6,5.2c6.5,3.7,3.7,9-2.6,12.5
	c-6.3,3.5-16.1,5-16.5,7.3s8.5,5.4,21.4,10.4s29.5,11.9,39.9,17.3s14.4,9.2,11,11.9c-3.5,2.7-14.4,4.2-14.6,7.1
	c-0.2,2.9,10.4,7.1,22.6,10.8c12.2,3.7,26,6.7,38.4,9.6c12.4,2.9,23.4,5.6,31.3,12.5c8,6.9,12.9,18,11.6,26.3c-0.3,2-1,3.9-1.8,5.6
	c-3.1,1.2-5.4,2.6-7.6,4.4c-1.8,0.3-3.6,0.6-5.5,0.9c-19,2.4-37.5-1.6-52.4-6.8c-14.9-5.3-26.3-11.8-37.7-19.9
	c-11.4-8.1-22.8-17.7-42.1-23.1s-46.6-6.5-69.5-1.5c-23,5-41.7,16.2-54.9,26.9c-13.2,10.8-20.9,21.2-22.4,25.2
	c-1.4,4,3.5,1.7,9.4,1.7c5.9,0,12.8,2.3,15.7,8.5c2.8,6.2,1.6,16.2-6.7,23.3c-8.3,7.1-23.8,11.3-26,13.8c-2.2,2.5,8.7,3.3,18.5,10.4
	c9.8,7.1,18.3,20.6,22,31.7c3.7,11.2,2.4,20-2.8,24.6c-5.3,4.6-14.6,5-11.8,7.9c2.8,2.9,17.9,8.3,29.5,16
	c11.6,7.7,19.7,17.7,23.2,28.7c3.5,11,2.2,22.9-2.8,30c-5.1,7.1-14,9.4-12.2,11.9c1.8,2.5,14.4,5.2,26.2,10.4
	c11.8,5.2,22.8,12.9,28.3,19c5.5,6.2,5.5,10.8,2.6,13.5c-2.8,2.7-8.5,3.5-5.7,6.2c2.8,2.7,14.2,7.3,32.3,9
	c18.1,1.7,42.9,0.6,65.1-4.8c22.2-5.4,41.7-15,54.5-28.8s18.9-31.9,22-50c3-18.1,3-36.2,5.7-54.5c2.7-18.4,8.1-37,15.3-45.8
	s16.5-7.7,27.6-7.5c3.7,0.1,7.5,0,11.4-0.3c-9,8.4-16.2,17-20.6,26.6c-4.5,9.8-6.2,20.6-2.9,32.3c3.3,11.7,11.4,24.4,18.3,36.7
	s12.6,24.2,15.7,34.8c3,10.6,3.5,19.8,0.8,29.6c-2.6,9.8-8.3,20.2-18.7,28.3c-10.4,8.1-25.4,13.8-40.7,16.9s-30.7,3.5-23.4,6.9
	c7.3,3.5,37.4,10,59.8,11c22.4,1,37-3.7,39.9-2.9c2.8,0.8-6.1,6.9-14.4,10.8c-8.3,3.8-16.1,5.4-10.6,6.3c5.5,1,24.2,1.3,40.5-0.2
	c16.3-1.5,30.1-5,42.5-9.8c12.4-4.8,23.4-11,26.2-11.2c2.8-0.2-2.4,5.6-8.3,10.4c-5.9,4.8-12.4,8.7-6.7,8.1
	c5.7-0.6,23.6-5.6,38.2-11.9c14.6-6.3,26-14,35.4-23.1c9.4-9,16.7-19.4,17.3-17.5c0.6,1.9-5.5,16.2-1.6,17.5
	c3.9,1.3,17.7-10.2,28.4-24.7c10.7-14.5,18.2-32,19.2-62.2c1-30.2-4.5-73.1-16.2-96.7c-1.3-2.6-2.6-4.9-4-7
	c14.3,1.3,27.5,2.2,39.1,2.2c0.5,0,1,0,1.6,0c-5.2,10.1-8.6,19.8-9.4,33.2c-0.7,13.6,1.3,30.9,7.6,46.4
	c6.3,15.6,16.9,29.4,23.4,44.6c6.5,15.2,8.9,31.7,8.5,43.8c-0.4,12.1-3.7,19.8,0.2,13.3c3.9-6.5,14.8-27.3,21.3-46.7
	c6.5-19.4,8.5-37.5,7.9-53.5c-0.6-16-3.9-29.8-10.6-43.2c-6.7-13.4-16.9-26.4-18.4-36.6c-0.2-1.5-0.2-2.9-0.1-4.2
	c14.5-2.9,25.5-7.8,34.8-13.8c15-9.8,25.2-22.5,35-35.6C764.9,283.6,774.3,270.2,770.2,262.1z"/>
	</g>
	
</svg>
